PathFileType	4	(X/Y/Z)	../Python\running\Running04\task.trc
DataRate	CameraRate	NumFrames	NumMarkers	Units	OrigDataRate	OrigDataStartFrame	OrigNumFrames
200.000000	200.000000	4	30	mm	200.000000	28	226
Frame#	Time	C7			RBAK			CLAV			STRN			RASI			LASI			PE01			RTH2			RTH3			RHEE			RD5M			RTOE			LTH2			LTH3			LTB2			LTB3			LHEE			LTOE			LD5M			RTH1			LPSI			RTB2			PE03			RPSI			PE02			RTB1			RTB3			T10			LTH1			LTB1			
		X1	Y1	Z1	X2	Y2	Z2	X3	Y3	Z3	X4	Y4	Z4	X5	Y5	Z5	X6	Y6	Z6	X7	Y7	Z7	X8	Y8	Z8	X9	Y9	Z9	X10	Y10	Z10	X11	Y11	Z11	X12	Y12	Z12	X13	Y13	Z13	X14	Y14	Z14	X15	Y15	Z15	X16	Y16	Z16	X17	Y17	Z17	X18	Y18	Z18	X19	Y19	Z19	X20	Y20	Z20	X21	Y21	Z21	X22	Y22	Z22	X23	Y23	Z23	X24	Y24	Z24	X25	Y25	Z25	X26	Y26	Z26	X27	Y27	Z27	X28	Y28	Z28	X29	Y29	Z29	X30	Y30	Z30	

29	0.14	-983.6759643554692	1326.327758789063	148.3628845214844	-990.2295532226567	1252.665649414063	286.4151000976564	-874.1306762695317	1229.666137695313	120.6438827514649	-836.0275268554692	1041.0078125	134.2475891113282	-893.1541137695317	834.1646118164067	301.9436035156251	-889.4569702148442	849.345092773438	77.99169921875003	-1066.786865234375	936.4287719726567	202.0123596191407	-1016.737854003907	467.8438720703127	313.8682861328126	-979.4108276367192	516.466735839844	319.779998779297	-1430.763671875	307.0977478027345	162.795394897461	-1423.122436523438	177.0396728515626	260.2495727539064	-1395.740112304688	143.4807739257813	221.7709960937501	-863.2636718750005	543.848083496094	46.64626312255861	-814.510375976563	604.3076782226565	39.57024002075197	-845.724487304688	207.5778045654298	71.50170898437503	-805.2524414062505	234.2390594482423	74.27105712890628	-892.083374023438	36.44639205932619	128.7024841308594	-708.5677490234377	30.72883796691896	152.7670288085938	-737.2402343750002	11.67949485778809	93.96916198730472	-1019.493835449219	546.3865966796877	328.0444946289064	-1081.038208007813	903.8274536132817	157.5316314697266	-1227.056518554688	354.3947753906251	276.834930419922	-1094.090698242188	885.781372070313	168.0634307861329	-1078.757690429688	906.3633422851567	242.3856201171876	-1097.636840820313	880.0353393554692	218.1147613525392	-1170.522827148438	330.1272277832032	283.5589904785157	-1243.91943359375	308.0114746093751	264.5531616210939	-1045.758911132813	1044.999389648438	207.3768005371095	-863.7956542968755	603.218444824219	32.57564163208009	-835.9743041992192	284.9488220214845	56.41950988769534	
30	0.145	-967.7902221679692	1323.349365234375	147.3274993896485	-975.8893432617192	1249.613403320313	285.1891174316407	-857.9214477539067	1225.772705078125	120.8959503173829	-820.4230346679692	1036.296142578125	134.8804321289063	-877.5637817382817	830.6587524414067	300.7359008789064	-874.7227172851567	846.541870117188	76.3703536987305	-1052.543090820313	932.3849487304692	202.9629974365236	-994.1622924804692	463.1405334472659	314.7028808593751	-957.744506835938	512.480895996094	320.4390869140626	-1407.998901367188	307.168426513672	163.6370239257813	-1398.808227539063	178.2282409667969	262.3189697265626	-1371.493286132813	144.2356567382813	224.2417602539064	-850.8740234375005	540.4070434570315	46.59985733032228	-801.1601562500005	599.9033203125002	38.49327468872072	-839.3747558593755	205.8424835205079	71.58127593994143	-798.281372070313	231.106903076172	75.37963867187503	-892.5609741210942	34.89100646972658	129.2641601562501	-708.8865966796877	31.01762771606447	153.4145660400391	-737.3389282226565	12.30457210540772	94.04820251464847	-998.4062500000005	541.736022949219	328.421844482422	-1066.494262695313	900.277465820313	158.0815734863282	-1202.8251953125	352.366668701172	278.0473937988282	-1079.608642578125	881.8527832031255	168.6912994384766	-1063.889282226563	901.3571166992192	243.0412445068361	-1082.650512695313	875.4824829101567	218.6705474853517	-1146.43017578125	327.2850036621095	284.630584716797	-1220.220825195313	306.229949951172	265.6214599609376	-1030.361694335938	1041.639892578125	206.760711669922	-850.5910644531255	599.631774902344	32.03394317626955	-826.7156372070317	282.8729553222657	56.54578399658206	
31	0.15	-951.8853149414067	1320.432739257813	146.3133850097657	-961.640014648438	1246.591918945313	283.9449462890626	-841.6976928710942	1221.846435546875	121.2281951904297	-804.8464355468755	1031.542358398438	135.6154785156251	-862.0764160156255	827.0827026367192	299.468475341797	-860.1244506835942	843.8711547851567	74.75354003906253	-1038.274780273438	928.5778808593755	204.0907440185548	-971.379272460938	458.679382324219	315.4816284179689	-935.937377929688	508.7470397949221	321.0568847656251	-1384.81884765625	306.8243408203126	164.7498016357422	-1373.770385742188	178.9443664550782	264.482635498047	-1346.584228515625	144.5484466552735	226.7469177246095	-839.194702148438	536.8875122070315	46.7980079650879	-788.2844238281255	595.1870727539065	37.39472579956056	-833.140747070313	204.3589172363282	71.61688232421878	-791.5019531250005	228.2564697265626	76.45332336425784	-893.020385742188	33.88985061645509	129.7992095947266	-709.2515869140627	31.35397529602052	153.8754425048829	-737.541687011719	12.94248390197755	94.15937042236331	-977.191772460938	537.2678833007815	328.782928466797	-1052.013427734375	897.0304565429692	158.7752227783204	-1178.1513671875	350.1139526367189	279.3880004882814	-1065.185913085938	878.1978149414067	169.4865264892579	-1048.981079101563	896.5224609375005	243.8861846923829	-1067.666259765625	871.1801757812505	219.3930816650392	-1121.779663085938	324.2928466796876	285.5679016113282	-1195.993286132813	304.2280883789064	266.7130737304689	-1015.015808105469	1038.366943359375	206.1276855468751	-837.885131835938	595.9106445312502	31.51280212402345	-817.6830444335942	280.9890747070314	56.7096862792969	
32	0.155	-935.9614257812505	1317.609619140625	145.3308258056641	-947.4705200195317	1243.638427734375	282.6887207031251	-825.4692993164067	1217.933471679688	121.6440200805665	-789.2998046875005	1026.805541992188	136.4487915039063	-846.6862182617192	823.489868164063	298.1514892578126	-845.6549682617192	841.3502807617192	73.1506271362305	-1023.9521484375	925.0571289062505	205.3555145263673	-948.3784179687505	454.5440673828127	316.200164794922	-913.9953002929692	505.3535156250002	321.6360778808595	-1361.249633789063	306.0462646484376	166.145004272461	-1348.020263671875	179.1490173339844	266.7258300781251	-1320.9990234375	144.4058990478516	229.2552185058595	-828.136108398438	533.3698730468752	47.15273666381837	-775.858520507813	590.3212890625002	36.39544677734376	-827.044799804688	203.1007232666017	71.60779571533206	-784.9270629882817	225.6712646484376	77.4516525268555	-893.4070434570317	33.38659286499025	130.2545471191407	-709.6063232421877	31.65711021423341	154.1821746826172	-737.7843017578127	13.51669883728028	94.28525543212893	-955.8587036132817	533.0517578125002	329.1309509277345	-1037.583618164063	894.118774414063	159.5888824462891	-1153.0546875	347.6680297851564	280.8390197753907	-1050.8125	874.8588867187505	170.4319458007813	-1034.023803710938	891.9475097656255	244.8956756591798	-1052.673583984375	867.1932983398442	220.2688446044923	-1096.595703125	321.196258544922	286.3679504394532	-1171.2568359375	302.0337524414064	267.823211669922	-999.7218627929692	1035.221069335938	205.4761657714845	-825.6191406250005	592.152038574219	31.01328468322755	-808.9194946289067	279.2740173339845	56.88763809204104	
